# xmcd CD database file
#
# Track frame offsets:
#	150
#	16539
#	69376
#	90356
#	110395
#	137527
#	153476
#	190380
#
# Disc length: 2544 seconds
#
# Revision: 0
# Processed by: cddbd v1.5.2PL0 Copyright (c) Steve Scherf et al.
# Submitted via: CDex 1.51
#
DISCID=5709ee08
DTITLE=Peter King - Brother Bernard
DYEAR=1988
DGENRE=Jazz
TTITLE0=Yesterdays
TTITLE1=Final Curtain
TTITLE2=One for Sir Bernard
TTITLE3=For All We Know
TTITLE4=But Beautiful
TTITLE5=Dalin
TTITLE6=Overjoyed
TTITLE7=Brother Bernard
EXTD=YEAR: 1988
EXTT0=
EXTT1=
EXTT2=
EXTT3=
EXTT4=
EXTT5=
EXTT6=
EXTT7=
PLAYORDER=
